<?xml version="1.0" encoding="iso-8859-1"?>
<!-- Uploaded to: SVG Repo, www.svgrepo.com, Generator: SVG Repo Mixer Tools -->
<svg height="800px" width="800px" version="1.1" id="Layer_1" xmlns="http://www.w3.org/2000/svg" xmlns:xlink="http://www.w3.org/1999/xlink" 
	 viewBox="0 0 502 502" xml:space="preserve">
<g>
	<path style="fill:#FFB86C;" d="M104.358,104.363c35.634-35.634,82.321-53.478,129.025-53.536L233.442,10
		C176.27,10.043,119.11,31.873,75.489,75.494C31.45,119.533,9.632,177.371,10.01,235.09l40.826-0.059
		C50.473,187.78,68.306,140.415,104.358,104.363z"/>
	<path style="fill:#FFB86C;" d="M139.131,397.643c-35.332-35.332-53.165-81.531-53.522-127.838l-40.826,0.059
		c0.372,56.737,22.189,113.359,65.479,156.648c43.456,43.456,100.349,65.28,157.305,65.487l0.059-40.826
		C221.099,450.981,174.631,433.143,139.131,397.643z"/>
	<path style="fill:#FFB86C;" d="M426.507,110.268C382.8,66.561,325.501,44.731,268.216,44.774l-0.059,40.827
		c46.856-0.058,93.731,17.786,129.481,53.536c35.917,35.917,53.754,83.063,53.528,130.138l40.827-0.059
		C492.204,211.712,470.381,154.142,426.507,110.268z"/>
	<path style="fill:#FFB86C;" d="M397.638,397.643c-35.885,35.885-82.978,53.723-130.011,53.529l-0.059,40.826
		c57.501,0.209,115.067-21.615,158.939-65.487c43.454-43.454,65.277-100.343,65.486-157.296l-40.827,0.059
		C450.942,315.76,433.105,362.176,397.638,397.643z"/>
	<path style="fill:#EB5989;" d="M85.61,269.805c0.356,46.308,18.189,92.506,53.522,127.838c35.5,35.5,81.968,53.338,128.495,53.529
		l0.263-181.632L85.61,269.805z M228.69,399.94c-8.878,8.878-23.271,8.878-32.149,0s-8.878-23.271,0-32.149s23.271-8.878,32.149,0
		C237.568,376.668,237.568,391.062,228.69,399.94z M191.292,334.985c-8.878,8.878-23.271,8.878-32.149,0s-8.878-23.271,0-32.149
		s23.271-8.878,32.149,0C200.17,311.713,200.17,326.107,191.292,334.985z"/>
	<path style="fill:#EB5989;" d="M396.654,289.713c-10.69,10.69-28.021,10.69-38.71,0c-5.583-5.583-8.244-12.978-7.995-20.292
		l-82.058,0.119l-0.263,181.632c47.033,0.194,94.126-17.644,130.011-53.529c35.467-35.467,53.304-81.883,53.528-128.368
		l-46.519,0.067C404.918,276.682,402.257,284.11,396.654,289.713z M342.853,382.881c-8.878,8.878-23.271,8.878-32.149,0
		s-8.878-23.271,0-32.149s23.271-8.878,32.149,0S351.731,374.003,342.853,382.881z"/>
	<path style="fill:#EB5989;" d="M50.836,235.031l182.28-0.264l0.036-24.575c-6.833,0.051-13.683-2.527-18.896-7.741
		c-10.327-10.327-10.327-27.071,0-37.398c5.233-5.233,12.114-7.81,18.973-7.739l0.154-106.487
		c-46.704,0.058-93.391,17.901-129.025,53.536C68.306,140.415,50.473,187.78,50.836,235.031z M159.143,142.089
		c8.878,8.878,8.878,23.271,0,32.149s-23.271,8.878-32.149,0s-8.878-23.271,0-32.149
		C135.871,133.211,150.265,133.211,159.143,142.089z"/>
	<path style="fill:#EB5989;" d="M286.428,199.827c10.327,10.327,10.327,27.071,0,37.398c-5.113,5.113-11.8,7.691-18.502,7.741
		l-0.036,24.575l82.058-0.119c0.228-6.69,2.888-13.312,7.995-18.418c10.69-10.69,28.021-10.69,38.71,0
		c5.086,5.086,7.747,11.676,7.993,18.339l46.519-0.067c0.226-47.075-17.611-94.221-53.528-130.138
		c-35.75-35.75-82.625-53.594-129.481-53.536l-0.154,106.487C274.679,192.157,281.334,194.733,286.428,199.827z M330.387,149.962
		c8.878-8.878,23.271-8.878,32.149,0s8.878,23.271,0,32.149s-23.272,8.878-32.149,0C321.509,173.234,321.509,158.84,330.387,149.962
		z"/>
	<circle style="fill:#FFB86C;" cx="212.616" cy="383.865" r="22.733"/>
	<path d="M212.616,416.598c-8.744,0-16.964-3.405-23.146-9.587c-6.182-6.182-9.587-14.402-9.587-23.146
		c0-8.743,3.405-16.963,9.587-23.146l0,0l0,0c6.182-6.182,14.402-9.587,23.146-9.587c8.743,0,16.963,3.405,23.146,9.588
		c6.182,6.182,9.587,14.402,9.587,23.145c0,8.744-3.405,16.964-9.588,23.146C229.579,413.193,221.359,416.598,212.616,416.598z
		 M212.616,371.132c-3.401,0-6.599,1.325-9.003,3.729l0,0c-2.405,2.405-3.729,5.602-3.729,9.003s1.324,6.599,3.729,9.003
		c2.405,2.405,5.603,3.729,9.004,3.729s6.598-1.324,9.003-3.729s3.73-5.603,3.73-9.004s-1.325-6.598-3.729-9.003
		C219.214,372.457,216.017,371.132,212.616,371.132z"/>
	<circle style="fill:#FFB86C;" cx="326.778" cy="366.806" r="22.733"/>
	<path d="M326.778,399.54c-8.743,0-16.964-3.405-23.146-9.588c-12.763-12.762-12.763-33.529,0-46.292l0,0l0,0
		c6.182-6.182,14.402-9.587,23.146-9.587s16.964,3.405,23.146,9.588c12.763,12.762,12.763,33.529,0,46.292
		C343.742,396.134,335.522,399.54,326.778,399.54z M326.778,354.073c-3.401,0-6.599,1.325-9.003,3.729l0,0
		c-4.965,4.964-4.965,13.042,0,18.007c2.404,2.405,5.602,3.73,9.003,3.73s6.599-1.325,9.003-3.729
		c4.965-4.965,4.965-13.043,0-18.007C333.377,355.397,330.18,354.073,326.778,354.073z"/>
	<path style="fill:#FFB86C;" d="M396.654,251.003c-10.69-10.69-28.021-10.69-38.71,0c-5.106,5.106-7.767,11.729-7.995,18.418
		l54.698-0.079C404.401,262.68,401.74,256.089,396.654,251.003z"/>
	<path style="fill:#FFB86C;" d="M357.943,289.713c10.69,10.69,28.021,10.69,38.71,0c5.603-5.603,8.264-13.031,7.993-20.371
		l-54.698,0.079C349.7,276.736,352.36,284.13,357.943,289.713z"/>
	<circle style="fill:#FFB86C;" cx="346.462" cy="166.037" r="22.733"/>
	<path d="M346.461,198.755c-8.382,0-16.764-3.191-23.146-9.572c-12.763-12.763-12.763-33.529,0-46.292
		c12.765-12.762,33.529-12.761,46.292,0c12.763,12.763,12.763,33.529,0,46.292C363.226,195.564,354.844,198.755,346.461,198.755z
		 M346.461,153.31c-3.26,0-6.521,1.241-9.003,3.724c-4.965,4.964-4.965,13.042,0,18.007c4.966,4.966,13.043,4.964,18.007,0
		c4.965-4.964,4.965-13.042,0-18.007C352.982,154.551,349.722,153.31,346.461,153.31z"/>
	<circle style="fill:#FFB86C;" cx="143.068" cy="158.164" r="22.733"/>
	<path d="M143.068,190.881c-8.383,0-16.764-3.19-23.146-9.572c-12.762-12.763-12.762-33.529,0-46.292
		c12.763-12.762,33.529-12.762,46.292,0c6.182,6.182,9.587,14.402,9.587,23.146c0,8.744-3.405,16.964-9.587,23.146
		C159.833,187.69,151.449,190.881,143.068,190.881z M143.068,145.437c-3.261,0-6.521,1.241-9.003,3.724
		c-4.965,4.964-4.965,13.042,0,18.006c4.964,4.965,13.043,4.965,18.007,0c2.405-2.405,3.729-5.602,3.729-9.003
		s-1.324-6.598-3.729-9.003C149.589,146.678,146.329,145.437,143.068,145.437z"/>
	<circle style="fill:#FFB86C;" cx="175.217" cy="318.91" r="22.733"/>
	<path d="M175.217,351.628c-8.382,0-16.765-3.191-23.146-9.572c-12.762-12.763-12.762-33.529,0-46.292l0,0
		c12.763-12.762,33.528-12.762,46.291,0c12.763,12.763,12.763,33.529,0,46.292C191.982,348.437,183.6,351.628,175.217,351.628z
		 M166.214,309.907c-4.965,4.964-4.965,13.042,0,18.007c4.964,4.965,13.043,4.965,18.007,0c4.965-4.964,4.965-13.042,0-18.007
		C179.257,304.942,171.179,304.943,166.214,309.907L166.214,309.907z"/>
	<path style="fill:#FFB86C;" d="M214.256,165.053c-10.327,10.327-10.327,27.071,0,37.398c5.214,5.214,12.063,7.791,18.896,7.741
		l0.077-52.878C226.37,157.243,219.489,159.82,214.256,165.053z"/>
	<path style="fill:#FFB86C;" d="M286.428,199.827c-5.094-5.094-11.749-7.67-18.425-7.739l-0.077,52.878
		c6.702-0.05,13.388-2.627,18.502-7.741C296.755,226.898,296.755,210.154,286.428,199.827z"/>
	<g>
		<path d="M233.131,244.767c5.511-0.008,9.978-4.474,9.985-9.985l0.036-24.575l0.077-52.878l0.154-106.487l0.059-40.827
			c0.004-2.656-1.049-5.205-2.926-7.083C238.64,1.054,236.096,0,233.442,0c-0.002,0-0.005,0-0.007,0
			c-62.336,0.047-120.94,24.347-165.018,68.423C23.892,112.949-0.402,172.163,0.01,235.156c0.036,5.498,4.503,9.935,10,9.935
			c0.005,0,0.01,0,0.015,0l40.826-0.059L233.131,244.767z M223.171,196.948c-0.642-0.478-1.265-0.989-1.844-1.568
			c-6.412-6.412-6.412-16.844,0-23.256c0.59-0.59,1.226-1.112,1.883-1.599L223.171,196.948z M223.242,148.61
			c-6.013,1.649-11.521,4.837-16.057,9.372c-14.209,14.21-14.209,37.331,0,51.541c4.509,4.508,9.981,7.686,15.955,9.344
			l-0.008,5.915l-162.094,0.235c2.078-42.933,19.759-82.95,50.391-113.583c30.204-30.204,69.636-47.853,111.94-50.31L223.242,148.61
			z M41.014,225.045l-20.844,0.03c2.092-53.864,24.03-104.15,62.39-142.51c37.932-37.932,87.632-59.845,140.868-62.329l-0.03,20.854
			l0.002,0.004c-47.66,2.472-92.124,22.208-126.113,56.197c-34.422,34.423-54.183,79.468-56.268,127.755L41.014,225.045z"/>
		<path d="M161.009,116.094c1.696,0,3.415-0.432,4.989-1.34c12.12-6.994,25.338-12.202,39.289-15.479
			c5.376-1.263,8.711-6.645,7.448-12.021c-1.263-5.377-6.651-8.711-12.021-7.448c-15.854,3.724-30.897,9.654-44.711,17.626
			c-4.784,2.76-6.424,8.876-3.663,13.659C154.19,114.3,157.552,116.094,161.009,116.094z"/>
		<path d="M119.922,181.31c6.382,6.382,14.763,9.572,23.146,9.572c8.381-0.001,16.765-3.191,23.146-9.572
			c6.183-6.182,9.588-14.402,9.588-23.146c0-8.743-3.405-16.963-9.587-23.146c-12.763-12.762-33.529-12.762-46.292,0
			C107.16,147.781,107.16,168.547,119.922,181.31z M134.065,149.16c2.405-2.405,5.603-3.729,9.003-3.729s6.599,1.325,9.004,3.729
			l0,0c2.405,2.405,3.729,5.602,3.729,9.003s-1.325,6.599-3.729,9.003c-2.405,2.405-5.603,3.73-9.004,3.73s-6.599-1.325-9.003-3.73
			c-2.405-2.405-3.729-5.602-3.729-9.003C130.335,154.763,131.66,151.565,134.065,149.16z"/>
		<path d="M152.071,342.056c6.381,6.381,14.764,9.572,23.146,9.572s16.765-3.191,23.146-9.572c12.762-12.763,12.762-33.529,0-46.292
			c-12.763-12.762-33.529-12.762-46.292,0C139.309,308.527,139.309,329.293,152.071,342.056z M166.213,309.907
			c2.483-2.482,5.743-3.724,9.004-3.724c3.26,0,6.521,1.242,9.003,3.724c2.405,2.405,3.73,5.603,3.73,9.003s-1.325,6.599-3.73,9.003
			c-4.964,4.965-13.043,4.965-18.007,0C161.249,322.949,161.249,314.871,166.213,309.907z"/>
		<path d="M179.882,383.865c0,8.743,3.405,16.963,9.587,23.145c6.182,6.183,14.402,9.587,23.146,9.587
			c8.743,0,16.963-3.405,23.145-9.587c6.183-6.182,9.588-14.402,9.588-23.145c0-8.744-3.405-16.964-9.587-23.146
			c-6.182-6.183-14.402-9.587-23.146-9.587s-16.964,3.405-23.146,9.587C183.288,366.901,179.882,375.122,179.882,383.865z
			 M203.612,374.861c2.405-2.405,5.602-3.729,9.003-3.729s6.598,1.324,9.003,3.729s3.729,5.602,3.729,9.003
			s-1.325,6.598-3.729,9.003l0,0c-2.405,2.405-5.602,3.729-9.003,3.729s-6.599-1.324-9.004-3.729s-3.729-5.602-3.729-9.003
			C199.882,380.464,201.207,377.267,203.612,374.861z"/>
		<path d="M433.578,103.197c-44.13-44.129-102.783-68.423-165.189-68.423c-0.058,0-0.123,0-0.181,0
			c-5.514,0.004-9.984,4.471-9.992,9.986l-0.059,40.827l-0.154,106.487l-0.077,52.877l0,0l0,0l-0.021,14.604L44.77,259.864
			c-2.661,0.004-5.21,1.068-7.084,2.958c-1.874,1.889-2.918,4.447-2.901,7.108c0.405,61.826,24.699,119.946,68.408,163.654
			c43.893,43.893,102.256,68.189,164.339,68.415c0.295,0.001,0.58,0.001,0.874,0.001c62.4-0.002,121.034-24.279,165.173-68.417
			c43.891-43.891,68.188-102.251,68.415-164.331C502.224,206.518,477.926,147.545,433.578,103.197z M257.594,473.877l-0.012,7.856
			c-53.003-2.628-102.485-24.528-140.248-62.292c-37.587-37.587-59.473-86.835-62.253-139.592l20.856-0.03l0.004-0.002
			c2.75,47.204,22.459,91.238,56.118,124.898c33.836,33.836,78.102,53.559,125.553,56.161L257.594,473.877z M257.642,440.847
			c-42.116-2.571-81.372-20.208-111.439-50.275C116.31,360.68,98.69,321.661,95.974,279.79l161.902-0.234L257.642,440.847z
			 M278.171,75.843l0.03-20.849c53.374,2.398,103.208,24.318,141.234,62.346c38.197,38.197,60.127,88.264,62.368,141.891
			l-20.849,0.03c-2.218-48.074-21.97-92.92-56.245-127.195c-34.103-34.103-78.716-53.849-126.539-56.221L278.171,75.843z
			 M277.983,205.681c0.475,0.38,0.937,0.781,1.373,1.217c3.106,3.105,4.816,7.235,4.816,11.628c0,4.392-1.71,8.522-4.816,11.628
			c-0.448,0.448-0.923,0.857-1.411,1.246L277.983,205.681z M277.913,253.53c5.835-1.688,11.181-4.829,15.586-9.234
			c6.883-6.884,10.674-16.036,10.674-25.77c0-9.735-3.791-18.887-10.674-25.771c-4.378-4.377-9.688-7.507-15.483-9.203l0.127-87.683
			c42.486,2.348,82.096,20.009,112.424,50.338c30.501,30.5,48.174,70.341,50.369,113.082l-27.925,0.041
			c-1.774-5.765-4.936-11.048-9.286-15.398c-7.059-7.059-16.443-10.946-26.426-10.946s-19.368,3.887-26.427,10.946
			c-4.378,4.379-7.55,9.698-9.317,15.502l-20.621,0.03l-43.029,0.062L277.913,253.53z M392.145,279.36
			c-0.715,1.173-1.56,2.28-2.562,3.282c-0.001,0-0.001,0-0.001,0c-3.281,3.281-7.644,5.088-12.283,5.088
			c-4.641,0-9.003-1.807-12.284-5.088c-0.989-0.989-1.826-2.081-2.536-3.239L392.145,279.36z M363.824,259.401
			c0.374-0.459,0.768-0.904,1.191-1.327c3.281-3.281,7.644-5.088,12.284-5.088c4.64,0,9.002,1.807,12.284,5.088
			c0.411,0.411,0.796,0.843,1.161,1.288L363.824,259.401z M277.876,279.526l63.183-0.092c1.635,6.51,5.003,12.541,9.813,17.35
			c7.059,7.059,16.443,10.946,26.426,10.946c0.001,0,0,0,0.001,0c9.981,0,19.367-3.888,26.425-10.946
			c4.839-4.838,8.217-10.906,9.841-17.455l27.267-0.04c-2.606,42.056-20.239,81.257-50.265,111.282
			c-30.461,30.461-70.242,48.13-112.925,50.361L277.876,279.526z M419.436,419.441c-38.19,38.191-88.237,60.119-141.853,62.367
			l0.03-20.853c48.035-2.244,92.851-21.994,127.096-56.241c33.809-33.809,53.531-78.04,56.154-125.453l20.862-0.03
			C479.089,332.22,457.19,381.687,419.436,419.441z"/>
		<path d="M326.778,334.073c-8.743,0-16.964,3.405-23.146,9.587c-6.183,6.183-9.587,14.403-9.587,23.146s3.404,16.963,9.587,23.146
			c6.182,6.183,14.402,9.588,23.146,9.588s16.964-3.405,23.146-9.588l0,0c12.763-12.763,12.763-33.529,0-46.292
			C343.742,337.478,335.522,334.073,326.778,334.073z M335.781,375.81L335.781,375.81c-2.404,2.405-5.602,3.73-9.003,3.73
			s-6.599-1.325-9.003-3.73c-2.405-2.405-3.729-5.603-3.729-9.003s1.324-6.599,3.729-9.004c2.404-2.405,5.602-3.729,9.003-3.729
			s6.599,1.324,9.003,3.729C340.746,362.767,340.746,370.845,335.781,375.81z"/>
		<path d="M346.461,198.77c8.744,0,16.964-3.405,23.146-9.587c6.183-6.183,9.587-14.403,9.587-23.146s-3.404-16.963-9.587-23.146
			c-12.764-12.762-33.528-12.761-46.292,0c-12.763,12.763-12.763,33.529,0,46.292C329.498,195.365,337.718,198.77,346.461,198.77z
			 M337.458,157.034c2.482-2.482,5.743-3.724,9.004-3.724c3.26,0,6.521,1.241,9.003,3.724c4.965,4.964,4.965,13.042,0,18.007
			c-4.965,4.966-13.042,4.964-18.007,0S332.493,161.998,337.458,157.034z"/>
	</g>
</g>
</svg>