<?xml version="1.0" encoding="utf-8"?>
<!-- Uploaded to: SVG Repo, www.svgrepo.com, Generator: SVG Repo Mixer Tools -->
<svg width="800px" height="800px" viewBox="0 0 1024 1024" class="icon"  version="1.1" xmlns="http://www.w3.org/2000/svg"><path d="M142.752 923.432a381.336 81.488 0 1 0 762.672 0 381.336 81.488 0 1 0-762.672 0Z" fill="#B8CBCD" /><path d="M296.088 369.928c0-26.504 96.712-48 216-48s216 21.496 216 48l-72 168c0 17.672-64.48 32-144 32s-144-14.328-144-32l-72-168z" fill="#F6E89A" /><path d="M512.088 585.928c-36.336 0-152.272-3.24-159.632-43.856l-71.072-165.84a16.136 16.136 0 0 1-1.296-6.304c0-62.2 208.256-64 232-64s232 1.8 232 64c0 2.168-0.44 4.312-1.296 6.304l-71.072 165.84c-7.368 40.616-123.296 43.856-159.632 43.856z m-128.4-51.544c8.864 7.088 53.856 19.544 128.4 19.544 74.536 0 119.528-12.464 128.4-19.544 0.208-0.944 0.52-1.864 0.896-2.76l69.384-161.896c-13.272-12.376-84.712-31.8-198.68-31.8-113.976 0-185.408 19.424-198.68 31.8l69.384 161.896c0.384 0.888 0.68 1.816 0.896 2.76z" fill="#8D4520" /><path d="M665.264 341.704c2.208-63.6-9.176-165.336-9.176-165.336s-31.416 8.184-52.808 20.896C560.776 128.888 512.088 67.928 512.088 67.928S358.752 259.912 358.752 344.592c0 84.688 68.656 153.336 153.336 153.336s153.336-68.648 153.336-153.336c0-0.928-0.128-1.936-0.16-2.888z" fill="#F7BB83" /><path d="M512.088 513.928c-93.368 0-169.336-75.96-169.336-169.336 0-89.256 150.432-278.632 156.832-286.648 6.08-7.608 18.928-7.608 25.008 0 0.464 0.576 43.888 55.112 84.368 118.344 20.424-9.44 41.976-15.12 43.088-15.408a15.976 15.976 0 0 1 19.936 13.704c0.472 4.184 11.416 102.872 9.296 166.936 0.096 1.352 0.144 2.232 0.144 3.072 0 93.376-75.96 169.336-169.336 169.336z m-0.048-419.944c-47.48 62.024-137.296 191.528-137.296 250.608 0 75.728 61.608 137.336 137.336 137.336 75.728 0 137.336-61.608 137.336-137.336l-0.152-2.368a24.304 24.304 0 0 1 0-1.08c1.576-45.272-4-111.352-7.12-143.704-9.616 3.344-21.36 8.024-30.704 13.576a16.024 16.024 0 0 1-21.76-5.312c-28.704-46.184-60.552-89.296-77.64-111.72z" fill="#8D4520" /><path d="M576.248 307.528c0.92-26.624-11.496-48.6-11.496-48.6s-36.56 32.68-45.512 38c0-35-7.112-104-7.112-104s-64.184 80.368-64.184 115.816a64.184 64.184 0 1 0 128.368 0c0-0.392-0.048-0.816-0.064-1.216z" fill="#F6E89A" /><path d="M512.128 388.928c-44.216 0-80.184-35.968-80.184-80.184 0-39.072 56.384-111.648 67.688-125.8a16 16 0 0 1 28.416 8.344c0.216 2.112 4.056 39.56 6.032 73.24 6.528-5.6 13.576-11.776 20.016-17.528a16.08 16.08 0 0 1 13.272-3.856 16.04 16.04 0 0 1 11.328 7.912c0.592 1.048 14.392 25.832 13.584 56.248 0.032 0.496 0.048 0.968 0.048 1.44-0.016 44.216-35.992 80.184-80.2 80.184zM500 236.408c-18.92 27.76-36.064 58.056-36.064 72.336a48.24 48.24 0 0 0 48.184 48.184 48.24 48.24 0 0 0 48.184-48.184l-0.048-0.576a19.52 19.52 0 0 1-0.008-1.184 77.184 77.184 0 0 0-2.288-20.776c-11.48 9.928-24.744 21.024-30.56 24.48a16 16 0 0 1-24.176-13.752c0.008-16.096-1.568-39.912-3.224-60.528z" fill="#8D4520" /><path d="M368.088 537.928c0 17.672 64.48 32 144 32s144-14.328 144-32l72-168c0 26.512-96.712 48-216 48s-216-21.488-216-48l72 168z" fill="#F6E89A" /><path d="M512.088 585.928c-36.336 0-152.272-3.24-159.632-43.856L286.144 387.36c-4.96-6.68-6.064-13.072-6.064-17.432a16.016 16.016 0 0 1 30.712-6.304l2.744 6.4c15.304 13.384 85.96 31.904 198.552 31.904 112.584 0 183.24-18.52 198.552-31.904l2.744-6.4a15.952 15.952 0 0 1 17.92-9.368 16 16 0 0 1 12.784 15.672c0 4.36-1.104 10.752-6.064 17.432l-66.304 154.712c-7.368 40.616-123.296 43.856-159.632 43.856z m-128.4-51.544c8.864 7.088 53.856 19.544 128.4 19.544 74.536 0 119.528-12.464 128.4-19.544 0.208-0.944 0.52-1.864 0.896-2.76l50.8-118.52c-45.896 14.24-116.056 20.824-180.096 20.824-64.032 0-134.192-6.584-180.096-20.824l50.8 118.52c0.384 0.888 0.68 1.816 0.896 2.76z" fill="#8D4520" /><path d="M368.088 537.928c0 17.672 64.48 32 144 32s144-14.328 144-32l-80 392c0 13.256-4.352 24-64 24-59.648 0-64-10.744-64-24l-80-392z" fill="#F6E89A" /><path d="M512.088 969.928c-49.768 0-78.952-6.312-79.976-38.248l-78.88-386.504a23.584 23.584 0 0 1-1.152-7.24 16 16 0 0 1 31.6-3.544c8.864 7.088 53.856 19.544 128.4 19.544 74.536 0 119.528-12.464 128.4-19.544a16.08 16.08 0 0 1 17.208-12.376 16.016 16.016 0 0 1 14.392 15.92c0 2.456-0.384 4.88-1.152 7.24l-78.88 386.504c-1.008 31.936-30.192 38.248-79.96 38.248z m-47.904-37.712c1.904 1.304 11.072 5.712 47.896 5.712s45.992-4.408 47.896-5.712c0.048-0.408 0.104-1.112 0.104-2.288 0-1.08 0.112-2.152 0.32-3.2l72.376-354.648c-41.784 12.944-104.224 13.848-120.704 13.848-16.48 0-78.928-0.904-120.704-13.848l72.376 354.648c0.216 1.056 0.328 2.128 0.328 3.2 0.016 1.184 0.064 1.888 0.112 2.288z" fill="#8D4520" /><path d="M510.752 617.928c-80.288 0-152-11.104-152-64h40c0-8.8-4.672-6.928-6.928-8.52 8.176 5.76 51.448 8.52 118.928 8.52 67.48 0 110.752-2.768 118.928-8.52-2.264 1.592-6.928-0.272-6.928 8.52l42.8 3.664c0 52.904-74.512 60.336-154.8 60.336z" fill="#8D4520" /><path d="M512.088 67.928s48.688 60.96 91.192 129.336c21.392-12.712 52.808-20.896 52.808-20.896s10.744 95.968 9.336 159.768c38.728 8.672 62.664 20.608 62.664 33.8 0 3.088-1.36 6.104-3.864 9.024l-68.136 158.976-80 392c0 13.256-4.352 24-64 24-59.648 0-64-10.744-64-24l-80-392-68.136-158.976c-2.504-2.92-3.864-5.936-3.864-9.024 0-13.24 24.136-25.224 63.152-33.912C368.544 247.656 512.088 67.928 512.088 67.928m0-32a32.024 32.024 0 0 0-25.008 12.032c-14.128 17.688-129.952 164.744-155.344 261.872-28.608 8.08-67.656 24.568-67.656 60.096 0 6.408 1.48 15.6 7.952 25.128l65.344 152.48 78.792 386.088c2.696 52.312 63.112 52.312 95.904 52.312 32.8 0 93.208 0 95.904-52.312l78.8-386.088 65.344-152.48c6.48-9.52 7.952-18.72 7.952-25.128 0-33.552-34.816-50.104-62.648-58.616-1.056-61.888-9.16-135-9.544-138.504a32.056 32.056 0 0 0-13.68-22.816A32.04 32.04 0 0 0 648 145.4c-2.336 0.608-16.56 4.416-32.936 10.888-38.408-58.624-76.192-106.08-77.992-108.328a31.952 31.952 0 0 0-24.984-12.032z" fill="#8D4520" /></svg>